<?xml version="1.0" standalone="no"?><!DOCTYPE svg PUBLIC "-//W3C//DTD SVG 1.1//EN"
  "http://www.w3.org/Graphics/SVG/1.1/DTD/svg11.dtd">
<svg t="1529659112447" class="icon" style="" viewBox="0 0 1024 1024" version="1.1" xmlns="http://www.w3.org/2000/svg"
     p-id="3825" xmlns:xlink="http://www.w3.org/1999/xlink" width="200" height="200">
  <defs>
    <style type="text/css"></style>
  </defs>
  <path
    d="M808.909 685.107L655.82 625.51c-11.213-4.352-26.01-11.724-32.103-16.69-0.358-2.407-0.716-9.934 3.892-25.498 1.024-3.226 10.547-17.562 16.23-26.164 26.06-39.321 72.704-103.833 72.704-167.782a277.504 277.504 0 0 0-60.774-172.493c-38.35-47.206-89.703-73.216-144.59-73.216-54.937 0-106.29 26.01-144.588 73.216-37.274 45.927-59.494 108.032-59.494 172.493 0 69.53 50.944 143.411 74.598 179.558l0.051 0.103c3.533 5.427 6.503 14.745 7.527 16.691 4.505 8.602 1.433 20.685 0 24.576-4.301 3.533-18.228 8.806-34.663 13.824l-1.229 0.358-138.752 61.748c-41.779 15.36-70.963 54.835-70.963 96.153v16.282c0 22.937 9.063 43.827 25.549 58.777 16.282 14.797 38.912 22.938 63.693 22.938h558.233c24.781 0 47.412-8.14 63.693-22.938 16.487-14.95 25.549-35.84 25.549-58.777v-16.333c-0.051-42.035-29.389-82.022-71.475-97.229z m-384.41-49.459c13.773-15.411 15.309-50.432 3.277-73.472a243.558 243.558 0 0 0-10.342-16.589c-19.712-30.105-69.376-99.379-69.376-156.211 0-111.258 75.93-196.608 163.993-196.608 88.064 0 163.584 85.35 163.584 196.608 0 51.149-43.93 108.954-67.328 144.282-12.39 18.688-18.995 28.825-21.555 37.478-9.42 31.437-7.475 53.965 5.786 67.02 13.772 13.518 42.24 24.986 47.82 27.137l153.344 59.699 0.512 0.205c25.19 9.011 37.07 32.87 37.07 56.985v24.576c0 28.826-27.649 24.576-49.102 24.576H241.87c-21.453 0-49.101 4.25-49.101-24.576v-24.576c0-23.961 11.469-46.848 37.018-56.012l0.768-0.256 137.83-61.338c13.005-4.198 43.622-14.9 56.115-28.928z"
    p-id="3826" fill="#6b6c6d"></path>
</svg>
