<?xml version="1.0" standalone="no"?><!DOCTYPE svg PUBLIC "-//W3C//DTD SVG 1.1//EN"
  "http://www.w3.org/Graphics/SVG/1.1/DTD/svg11.dtd">
<svg t="1529659102347" class="icon" style="" viewBox="0 0 1024 1024" version="1.1" xmlns="http://www.w3.org/2000/svg"
     p-id="3648" xmlns:xlink="http://www.w3.org/1999/xlink" width="200" height="200">
  <defs>
    <style type="text/css"></style>
  </defs>
  <path
    d="M808.909 685.107L655.82 625.51c-11.213-4.352-25.959-11.724-32.103-16.69-0.358-2.407-0.716-9.934 3.892-25.498 1.024-3.226 10.547-17.562 16.23-26.164 26.06-39.321 72.704-103.833 72.704-167.782a277.504 277.504 0 0 0-60.774-172.493c-38.35-47.206-89.703-73.216-144.59-73.216s-106.29 25.959-144.588 73.216c-37.274 45.927-59.546 108.032-59.546 172.493 0 69.53 50.944 143.411 74.599 179.558l0.051 0.052c3.533 5.427 6.502 14.745 7.526 16.69 4.506 8.602 1.434 20.686 0 24.577-4.3 3.533-18.227 8.806-34.662 13.824l-1.229 0.358-138.752 61.799c-41.779 15.36-70.963 54.835-70.963 96.153v16.282c0 22.937 9.062 43.827 25.549 58.777 16.281 14.797 38.912 22.938 63.693 22.938H791.09c24.781 0 47.411-8.14 63.693-22.938 16.486-14.95 25.549-35.84 25.549-58.777v-16.333c0-42.035-29.338-82.022-71.424-97.229z"
    p-id="3649" fill="#e25050"></path>
</svg>
